<svg width="18" height="18" viewBox="0 0 18 18" fill="none" xmlns="http://www.w3.org/2000/svg">
<path d="M12.2603 2.14359C13.2037 2.14631 14.1076 2.50838 14.7747 3.15074C15.4417 3.7931 15.8177 4.66354 15.8206 5.57197V12.428C15.8177 13.3364 15.4417 14.2069 14.7747 14.8492C14.1076 15.4916 13.2037 15.8537 12.2603 15.8564H5.1406C4.19723 15.8537 3.29331 15.4916 2.62624 14.8492C1.95918 14.2069 1.58318 13.3364 1.58036 12.428V5.57197C1.58318 4.66354 1.95918 3.7931 2.62624 3.15074C3.29331 2.50838 4.19723 2.14631 5.1406 2.14359H12.2603ZM12.2603 0.772461H5.1406C2.39928 0.772461 0.156494 2.93219 0.156494 5.57197V12.428C0.156494 15.0678 2.39928 17.2275 5.1406 17.2275H12.2603C15.0016 17.2275 17.2444 15.0678 17.2444 12.428V5.57197C17.2444 2.93219 15.0016 0.772461 12.2603 0.772461Z" fill="#E6ECFD"/>
<path d="M13.3283 5.57202C13.1171 5.57202 12.9106 5.5117 12.735 5.39869C12.5593 5.28569 12.4224 5.12507 12.3416 4.93714C12.2608 4.74922 12.2396 4.54244 12.2808 4.34294C12.322 4.14344 12.4238 3.96019 12.5731 3.81636C12.7225 3.67253 12.9128 3.57458 13.1199 3.5349C13.3271 3.49522 13.5419 3.51558 13.737 3.59342C13.9322 3.67126 14.099 3.80308 14.2163 3.97221C14.3337 4.14133 14.3963 4.34017 14.3963 4.54358C14.3966 4.67872 14.3692 4.81258 14.3156 4.93749C14.2621 5.0624 14.1834 5.17589 14.0842 5.27144C13.9849 5.367 13.8671 5.44274 13.7374 5.49432C13.6077 5.54591 13.4686 5.57231 13.3283 5.57202ZM8.70045 6.2574C9.26375 6.2574 9.81441 6.41825 10.2828 6.71962C10.7511 7.02098 11.1162 7.44932 11.3318 7.95047C11.5473 8.45162 11.6037 9.00307 11.4938 9.53509C11.3839 10.0671 11.1127 10.5558 10.7144 10.9394C10.3161 11.3229 9.80857 11.5841 9.25609 11.69C8.70361 11.7958 8.13095 11.7415 7.61052 11.5339C7.0901 11.3263 6.64528 10.9748 6.33233 10.5238C6.01937 10.0727 5.85234 9.54247 5.85234 9.00003C5.85314 8.27288 6.15347 7.57573 6.68742 7.06156C7.22137 6.54738 7.94533 6.25818 8.70045 6.2574ZM8.70045 4.88627C7.85553 4.88627 7.02959 5.12754 6.32706 5.57956C5.62454 6.03159 5.07699 6.67407 4.75365 7.42576C4.43032 8.17745 4.34572 9.00459 4.51055 9.80259C4.67539 10.6006 5.08226 11.3336 5.6797 11.9089C6.27715 12.4842 7.03834 12.876 7.86703 13.0347C8.69571 13.1935 9.55466 13.112 10.3353 12.8007C11.1159 12.4893 11.7831 11.962 12.2525 11.2855C12.7219 10.609 12.9724 9.81366 12.9724 9.00003C12.9724 7.90899 12.5223 6.86264 11.7212 6.09116C10.92 5.31968 9.83345 4.88627 8.70045 4.88627Z" fill="#E6ECFD"/>
</svg>
