<svg width="18" height="18" viewBox="0 0 18 18" fill="none" xmlns="http://www.w3.org/2000/svg">
<path d="M9.32233 0.320312C4.52811 0.320312 0.640808 4.20588 0.640808 8.99796C0.640808 12.5504 2.78018 15.603 5.83809 16.9473C5.81484 16.343 5.83422 15.6147 5.98925 14.9561C6.1559 14.251 7.10544 10.226 7.10544 10.226C7.10544 10.226 6.82639 9.67203 6.82639 8.85462C6.82639 7.56847 7.57052 6.60773 8.50069 6.60773C9.29132 6.60773 9.67114 7.20045 9.67114 7.90938C9.67114 8.70354 9.16343 9.88897 8.90376 10.9892C8.68672 11.9112 9.36496 12.6588 10.2757 12.6588C11.919 12.6588 13.0275 10.5475 13.0275 8.04497C13.0275 6.14286 11.7446 4.72112 9.41535 4.72112C6.78376 4.72112 5.14047 6.68521 5.14047 8.87787C5.14047 9.63329 5.36526 10.1679 5.71407 10.5785C5.87298 10.7684 5.89623 10.8458 5.83809 11.0628C5.79546 11.2216 5.70245 11.6051 5.65981 11.7601C5.60168 11.9809 5.4234 12.0584 5.22574 11.977C4.01265 11.4812 3.4468 10.1563 3.4468 8.66093C3.4468 6.19709 5.52804 3.24127 9.65176 3.24127C12.9655 3.24127 15.1475 5.63925 15.1475 8.21155C15.1475 11.6168 13.2523 14.1581 10.4618 14.1581C9.52387 14.1581 8.64409 13.6506 8.34178 13.0772C8.34178 13.0772 7.83794 15.0762 7.72943 15.4636C7.54727 16.1338 7.18683 16.8001 6.8574 17.3231C7.65652 17.5587 8.48529 17.6787 9.31845 17.6795C14.1127 17.6795 18 13.7939 18 9.00183C18 4.20976 14.1165 0.320312 9.32233 0.320312Z" fill="#E6ECFD"/>
</svg>
