<svg width="19" height="16" viewBox="0 0 19 16" fill="none" xmlns="http://www.w3.org/2000/svg">
<path d="M18.6408 2.41226C17.9541 2.71067 17.2274 2.90727 16.4839 2.99584C17.2653 2.53827 17.8529 1.81134 18.1366 0.951392C17.3978 1.38339 16.5909 1.6865 15.7504 1.84774C15.3965 1.47682 14.9708 1.18174 14.4993 0.980435C14.0278 0.779134 13.5202 0.675817 13.0075 0.676764C10.9318 0.676764 9.25201 2.33216 9.25201 4.37279C9.25054 4.65664 9.28306 4.93964 9.34889 5.21574C7.86044 5.14597 6.40295 4.76626 5.06965 4.10093C3.73636 3.4356 2.55662 2.49928 1.60592 1.35189C1.27239 1.91416 1.096 2.55569 1.09519 3.20944C1.09519 4.49103 1.76383 5.62387 2.77347 6.28756C2.17529 6.27336 1.58936 6.11504 1.06544 5.82603V5.8718C1.06544 7.66451 2.36229 9.15589 4.07871 9.49536C3.75594 9.5814 3.42333 9.62499 3.08929 9.62504C2.85226 9.62545 2.61578 9.60246 2.38327 9.55638C2.86043 11.0249 4.24921 12.0929 5.89431 12.1234C4.55755 13.1536 2.91636 13.7104 1.22869 13.7063C0.929124 13.7059 0.629836 13.688 0.332336 13.6529C2.04921 14.7492 4.04494 15.3291 6.08197 15.3236C12.9995 15.3236 16.7787 9.68988 16.7787 4.8038C16.7787 4.6436 16.7745 4.48341 16.7669 4.32702C17.5004 3.80525 18.135 3.15684 18.6408 2.41226Z" fill="#E6ECFD"/>
</svg>
